<svg version="1.1" id="Layer_1" xmlns="http://www.w3.org/2000/svg" xmlns:xlink="http://www.w3.org/1999/xlink" x="0px" y="0px"
	 width="100%" viewBox="0 0 269 98" enable-background="new 0 0 269 98" xml:space="preserve">
<path fill="#F5F5F5" opacity="1.000000" stroke="none" 
	d="
M269.650879,74.873657 
	C270.000000,81.654343 269.774567,88.319550 270.094604,94.958458 
	C270.255920,98.305092 269.560760,99.111046 266.051514,99.102348 
	C207.992752,98.958511 149.933517,99.000000 91.874397,99.000000 
	C80.562035,99.000000 69.249680,99.000000 57.468658,99.000000 
	C55.988529,97.945312 56.436485,96.806023 56.938957,95.347977 
	C57.678734,93.804878 58.351028,92.618507 59.114162,91.103058 
	C60.524776,89.025925 61.678123,87.184296 62.736523,84.908607 
	C63.194809,84.047508 63.558765,83.510201 64.083389,82.694618 
	C65.361710,80.855209 66.133385,79.104599 67.145020,77.120857 
	C67.859894,75.944595 68.529625,75.118355 69.160507,73.888435 
	C70.133987,72.098427 70.919724,70.571495 71.823822,68.739929 
	C72.842773,66.963760 73.946236,65.616669 74.763588,63.721848 
	C75.339821,62.432568 75.730522,61.419495 76.197418,60.080460 
	C77.274193,57.770679 79.098656,56.337944 80.076294,53.953331 
	C82.068672,50.574093 83.717384,47.389526 85.441330,43.869461 
	C85.660835,42.876945 85.857239,42.227463 86.201942,41.267666 
	C87.625214,38.884060 89.345230,37.063671 90.148544,34.321396 
	C91.024521,32.632904 92.014549,31.412159 92.987503,29.781998 
	C93.911621,28.378027 94.539841,27.191870 95.303467,25.688379 
	C98.847610,18.485634 104.843506,12.884528 105.734650,4.716858 
	C100.373230,10.369395 97.836205,17.652561 94.073273,24.612797 
	C93.340439,25.882038 92.625885,26.756338 91.933334,28.039074 
	C90.786140,30.047146 89.896507,31.813540 88.942833,33.919250 
	C87.765709,36.173061 86.727715,38.125843 85.340988,40.261353 
	C84.760582,41.338547 84.314926,42.110645 83.807884,43.235867 
	C81.998711,46.597656 80.594055,49.783150 78.695328,53.113804 
	C77.787056,54.120998 76.973000,54.599442 75.593979,54.611053 
	C72.890800,53.518814 72.382301,50.993454 70.749619,48.938828 
	C70.211136,48.091534 69.918983,47.494343 69.463135,46.618587 
	C69.023277,45.765419 68.763741,45.183117 68.305756,44.348122 
	C67.354454,42.595573 66.391098,41.217171 65.413635,39.478745 
	C64.527512,37.684383 63.767204,36.182777 62.557178,34.569710 
	C61.927483,33.561966 61.572803,32.771381 61.018028,31.713348 
	C60.099731,29.816463 59.375225,28.189648 58.121700,26.450432 
	C57.218513,25.147533 56.602497,24.080462 55.722450,22.712597 
	C53.186836,18.533426 50.824265,14.689157 48.844902,10.672379 
	C46.862122,6.648664 43.912086,5.447701 39.624092,5.456380 
	C27.484800,5.480950 15.339023,5.886666 2.797138,5.107121 
	C2.149843,4.829141 1.908507,4.679470 1.333585,4.264900 
	C0.095472,0.604942 2.276319,0.971420 4.480212,0.973147 
	C50.007679,1.008817 95.535187,1.000000 141.531342,1.000000 
	C142.134613,3.422915 140.037827,3.427395 138.621414,3.870987 
	C130.009903,6.567912 122.521400,10.980454 116.351746,18.116753 
	C114.253571,20.631969 112.684547,23.091022 111.032265,25.894577 
	C110.213791,27.330774 109.573875,28.484140 108.956909,30.018703 
	C108.229050,31.748617 107.704910,33.200310 107.187317,35.008156 
	C106.756241,36.390312 106.444145,37.457344 106.365540,38.920837 
	C106.368408,39.961151 106.338997,40.657948 106.325409,41.712917 
	C106.300774,42.792259 106.197250,43.504280 106.015076,44.568314 
	C105.674286,46.070881 105.422554,47.223877 105.379578,48.765045 
	C105.408936,50.060421 105.366821,51.002781 105.426414,52.295364 
	C105.518417,54.058384 106.020927,55.381527 106.367844,57.092396 
	C106.983398,59.416599 107.393845,61.436138 108.105835,63.720421 
	C108.492760,65.085419 108.876663,66.093254 109.584167,67.312088 
	C110.308640,68.507568 110.999496,69.335464 111.762741,70.511200 
	C112.612045,72.405128 113.377533,73.961563 115.036926,75.313560 
	C115.728554,76.047897 116.087807,76.615082 116.626617,77.463715 
	C117.590317,79.120506 118.781425,80.086998 120.313370,81.180756 
	C122.760452,83.600693 125.148193,85.548294 128.227493,87.142799 
	C130.375793,88.303406 132.239914,89.265984 134.560623,90.116432 
	C148.537018,94.985886 161.691833,94.069870 174.630005,86.718262 
	C180.168289,83.817268 184.496323,80.113358 187.750824,74.744339 
	C189.042297,72.263435 190.965240,70.536827 191.785767,67.386475 
	C189.004181,68.829659 188.443924,71.366112 186.798080,73.410988 
	C183.170410,78.512688 178.729507,82.279320 173.795074,86.098404 
	C166.513443,90.107651 159.092117,92.253296 151.163742,92.437477 
	C148.869217,92.490791 146.422363,92.516052 144.958466,89.578323 
	C144.507828,87.769791 144.465363,86.348679 144.552032,84.496399 
	C144.417343,82.115280 144.491364,80.155479 144.526199,77.780685 
	C144.575623,76.258064 144.472534,75.151825 144.550415,73.630302 
	C144.578537,72.661278 144.583389,72.106430 144.573547,71.132492 
	C144.458206,69.586990 144.468414,68.460243 144.542969,66.904282 
	C144.444321,62.712769 144.673004,58.951199 144.559723,54.757862 
	C144.427902,52.336472 144.434082,50.344280 144.514023,47.933998 
	C144.575409,46.689430 144.492737,45.863312 144.546097,44.632706 
	C144.582306,43.167274 144.531113,42.105473 144.578674,40.654198 
	C144.609421,39.494026 144.572144,38.723434 144.597107,37.574242 
	C144.619339,36.446392 144.603729,35.696892 144.623413,34.578186 
	C144.640274,33.232773 144.664963,32.256828 144.657318,30.916595 
	C144.651169,30.310022 144.649002,30.067442 144.644287,29.460749 
	C144.637497,28.853506 144.633286,28.610376 144.624817,28.002136 
	C144.621002,26.904863 144.649094,26.173130 144.645126,25.070829 
	C144.590164,23.704021 144.616211,22.706730 144.595703,21.327982 
	C144.506165,19.388618 144.253647,17.848570 144.100052,15.891426 
	C144.146790,14.000357 144.368805,12.529159 144.468338,11.045937 
	C144.931763,4.140669 145.925522,3.170359 152.981155,3.578891 
	C161.768021,4.087664 169.720963,7.092648 177.230728,12.351871 
	C180.914932,15.084746 183.338120,18.682772 187.113510,20.801903 
	C184.987900,17.565474 182.636688,14.556408 179.240921,12.000346 
	C173.226944,7.489284 166.993530,4.314528 159.864136,3.080298 
	C159.038666,2.937394 158.337753,2.496566 157.946091,1.369085 
	C180.687561,1.000000 203.375122,1.000000 226.531342,1.000000 
	C226.944595,3.592521 224.634171,3.326469 223.141403,3.836116 
	C219.113663,5.211220 215.124954,6.608860 211.370758,9.362699 
	C209.351547,10.937602 207.313965,11.956281 205.828156,14.122795 
	C204.253647,16.088594 202.767609,17.719799 202.133362,20.253765 
	C201.648193,21.875143 201.381546,23.195635 201.368820,24.906273 
	C201.403275,26.188372 201.358795,27.123390 201.381714,28.410618 
	C201.391403,30.165541 201.533005,31.552521 201.947495,33.256485 
	C202.116318,34.047821 202.192841,34.501724 202.302429,35.294151 
	C202.509644,37.690666 203.567673,39.403889 204.660461,41.458557 
	C206.270721,44.561535 208.336914,46.947212 210.341049,49.774437 
	C211.060730,50.728539 211.587372,51.414471 212.435425,52.250572 
	C213.724991,53.556477 214.544724,54.824329 215.663239,56.268135 
	C216.843948,57.681217 217.912399,58.755608 219.240112,60.030563 
	C220.367691,61.176819 221.227859,62.131088 222.397339,63.228828 
	C223.671783,64.503128 224.484436,65.738594 225.557037,67.168564 
	C226.803925,68.722717 227.999451,69.893768 229.454620,71.262741 
	C230.619308,72.422493 231.523468,73.384529 232.598175,74.656219 
	C233.824814,76.523331 235.109726,77.918137 236.397980,79.781860 
	C238.398712,82.705605 238.769501,85.512733 237.607422,88.868988 
	C233.346680,92.825264 228.681305,92.482063 223.854935,91.372650 
	C221.110168,90.741730 218.451721,89.866013 215.447205,88.771469 
	C213.872253,88.241531 212.695816,87.770020 211.240112,87.027359 
	C207.343323,85.063744 205.748520,80.837425 201.547836,79.680687 
	C202.500793,82.814651 204.854706,84.701752 207.988007,86.350433 
	C210.060318,88.098503 212.090454,89.229324 214.638245,90.197731 
	C229.545197,95.315468 243.635468,94.053223 257.587646,86.900696 
	C261.714355,84.587067 264.334259,81.421730 266.212189,77.130524 
	C267.098267,75.760094 267.989716,74.955910 269.650879,74.873657 
z"/>
<path fill="#F6F6F6" opacity="1.000000" stroke="none" 
	d="
M1.000000,4.468657 
	C1.000000,4.000000 1.216779,3.995951 1.323462,3.976687 
	C6.233095,7.818795 7.885160,13.780560 11.135380,18.676020 
	C13.406092,22.096151 15.321464,25.778658 17.605373,29.625034 
	C18.334383,30.906742 18.772594,31.946489 19.475304,33.216457 
	C20.122232,34.442280 20.639759,35.366615 21.441904,36.489372 
	C22.060249,37.471428 22.407576,38.242142 22.998196,39.242790 
	C23.922905,40.818310 24.777500,42.063141 25.689327,43.664238 
	C26.813768,46.012745 28.074871,47.897079 29.413582,50.117641 
	C30.086052,51.339367 30.584747,52.280354 31.384308,53.407646 
	C31.890085,54.198792 32.170952,54.757030 32.630066,55.571556 
	C33.374447,56.935982 34.042423,57.983421 34.882935,59.294037 
	C35.838551,61.039871 36.482964,62.596626 37.612465,64.250610 
	C38.385658,65.395210 38.900162,66.325386 39.589417,67.522285 
	C40.473591,69.320122 41.252361,70.810905 42.440708,72.431931 
	C43.259701,73.788979 43.730030,74.976372 44.634972,76.289902 
	C45.423485,77.456390 45.950684,78.405266 46.659580,79.630325 
	C47.664387,81.728477 48.732391,83.394516 50.215393,85.189224 
	C50.516212,85.651642 50.623726,85.843674 50.861526,86.336349 
	C51.402222,87.845406 51.764305,89.074860 52.702744,90.398758 
	C53.740002,91.942741 54.588707,93.223640 55.662952,94.765663 
	C56.449463,96.115196 56.509537,97.268539 56.216743,98.722763 
	C38.883549,99.000000 21.765612,98.882980 4.651934,99.100731 
	C1.310115,99.143250 0.926302,98.074852 0.936297,95.172371 
	C1.039865,65.094307 1.000000,35.015739 1.000000,4.468657 
z"/>
<path fill="#F4F4F4" opacity="1.000000" stroke="none" 
	d="
M242.938324,1.367824 
	C250.629623,1.000000 258.277466,1.313310 265.881378,0.871362 
	C269.842438,0.641140 270.098480,2.081750 270.073639,5.348345 
	C269.925049,24.918850 270.000000,44.491051 270.000000,64.531342 
	C267.859772,65.225807 268.098053,63.320526 267.359222,61.860516 
	C266.973145,60.686386 266.782806,59.813080 266.347473,58.679810 
	C265.631470,56.811539 264.879944,55.329090 263.573853,53.804745 
	C262.467834,52.406631 261.745636,51.116940 260.568665,49.766083 
	C259.693512,48.693554 259.164307,47.763206 258.288818,46.686264 
	C256.817627,44.950233 255.407883,43.602112 253.782928,42.011246 
	C252.660065,40.860939 251.794800,39.912605 250.663696,38.779873 
	C249.494476,37.449234 248.823135,36.138618 247.617477,34.843704 
	C246.562592,33.700993 245.713486,32.790886 244.571426,31.720842 
	C243.581619,30.728691 242.917221,29.877811 242.066803,28.753750 
	C240.874496,27.017857 239.614426,25.784149 238.088898,24.348179 
	C237.340881,23.699444 236.841934,23.267590 236.064423,22.646667 
	C235.655731,22.265999 235.504059,22.100161 235.152100,21.661945 
	C233.730255,19.472713 232.406387,17.618805 231.208832,15.267375 
	C230.501648,13.829958 230.095108,12.664998 229.844055,11.048477 
	C229.787064,9.861705 229.913803,9.083330 230.316956,7.952161 
	C233.611374,3.325014 237.930298,3.274839 242.538177,4.133057 
	C245.309906,4.649292 248.012878,5.367796 250.954773,6.615366 
	C254.776688,8.289665 257.608459,10.891899 261.051605,12.575561 
	C259.960419,9.566121 257.180145,8.442989 254.490219,6.708763 
	C250.897339,3.790310 245.801285,5.322627 242.938324,1.367824 
z"/>
<path fill="#070707" opacity="1.000000" stroke="none" 
	d="
M178.188675,14.197971 
	C169.784042,9.006440 161.404587,5.213025 151.640076,4.917734 
	C147.196701,4.783360 145.201599,5.951818 145.945679,10.613814 
	C146.202545,12.223261 145.950089,13.914001 145.853256,15.985611 
	C136.418732,18.831963 126.778419,18.831228 117.240211,19.698128 
	C116.588455,19.757360 116.002563,19.279789 115.288727,18.418392 
	C121.750389,8.979963 131.217453,4.488942 141.863708,1.350808 
	C147.022095,1.000000 152.044189,1.000000 157.533142,1.000000 
	C165.695679,3.021401 173.201431,5.474913 179.774612,10.788794 
	C181.040497,12.809028 180.074051,13.655143 178.188675,14.197971 
z"/>
<path fill="#111111" opacity="1.000000" stroke="none" 
	d="
M252.328461,8.123861 
	C248.453873,7.310292 244.984940,6.369277 241.489777,5.538655 
	C237.950485,4.697547 234.627426,5.019125 231.585648,7.926237 
	C230.566818,8.516253 229.837433,8.892648 229.057846,9.203430 
	C226.804092,10.101861 224.567978,7.462910 222.944550,8.527680 
	C220.769028,9.954572 218.568497,10.967494 216.127029,11.285392 
	C214.014038,11.560521 211.397934,12.886242 209.960083,9.376556 
	C214.612854,4.543363 220.644470,3.148230 226.818527,1.331801 
	C232.022095,1.000000 237.044189,1.000000 242.533142,1.000000 
	C246.633560,3.628401 251.457764,2.788711 255.453735,5.449024 
	C255.266281,7.187932 254.127731,7.788980 252.328461,8.123861 
z"/>
<path fill="#ADADAD" opacity="1.000000" stroke="none" 
	d="
M235.532379,80.222137 
	C234.050674,78.585091 232.949753,77.204140 231.734589,75.510590 
	C236.653702,72.217926 242.444168,72.381943 247.926483,71.686279 
	C252.866959,71.059372 257.842163,70.829445 262.695251,69.539688 
	C264.976807,68.933334 267.312225,68.685577 269.665955,70.709351 
	C270.000000,72.066673 270.000000,73.133339 270.000000,74.600006 
	C269.290558,75.616852 268.581116,76.233696 267.662292,77.051315 
	C259.575592,79.961868 251.230026,79.741837 243.141388,81.131264 
	C240.684891,81.553230 238.221436,81.810173 235.532379,80.222137 
z"/>
<path fill="#979797" opacity="1.000000" stroke="none" 
	d="
M267.912781,60.719788 
	C268.698181,62.115723 269.088715,63.357552 269.739624,64.799690 
	C270.000000,65.000000 270.000000,65.500000 270.000000,65.750000 
	C269.143188,67.630905 267.699829,68.335358 265.951202,68.400475 
	C254.698730,68.819542 243.688278,71.101166 232.588394,72.694336 
	C231.595322,72.836876 230.613388,72.744980 229.251282,72.263420 
	C227.668488,70.899681 226.486771,69.723389 225.185913,68.257202 
	C225.805969,65.937599 227.581497,65.271103 229.414017,65.131729 
	C242.183258,64.160515 254.769150,61.683708 267.912781,60.719788 
z"/>
<path fill="#A1A1A1" opacity="1.000000" stroke="none" 
	d="
M228.977234,72.353149 
	C240.746979,69.562973 252.706757,67.493523 264.887512,67.003616 
	C266.368011,66.944069 267.875946,67.126862 269.618530,66.163498 
	C270.000000,67.388893 270.000000,68.777779 270.000000,70.583336 
	C266.719940,70.210014 263.617218,71.086578 260.372467,71.600609 
	C251.156357,73.060585 241.851242,73.958580 232.100754,75.137909 
	C230.781647,74.342110 229.942947,73.486214 228.977234,72.353149 
z"/>
<path fill="#A1A1A1" opacity="1.000000" stroke="none" 
	d="
M56.250000,99.000000 
	C55.616405,97.938477 55.232815,96.876953 54.750381,95.483765 
	C55.447117,94.330658 56.406105,94.215652 57.867897,94.806381 
	C57.851284,96.175911 57.424915,97.241966 56.999275,98.654015 
	C57.000000,99.000000 56.500000,99.000000 56.250000,99.000000 
z"/>
<path fill="#020202" opacity="1.000000" stroke="none" 
	d="
M17.573412,31.231131 
	C12.026910,22.222210 6.840450,13.451010 1.542068,4.318617 
	C15.709900,3.886564 29.990086,3.855351 44.268921,3.699992 
	C46.295643,3.677940 47.182556,4.639234 48.043549,6.206850 
	C50.992710,11.576380 54.044769,16.889393 57.116787,22.576958 
	C56.705524,24.743813 55.406345,25.868626 53.703083,26.138531 
	C41.796761,28.025244 30.018164,30.782879 17.573412,31.231131 
z"/>
<path fill="#2E2E2E" opacity="1.000000" stroke="none" 
	d="
M29.405638,51.134315 
	C27.639887,48.962124 26.301359,46.872181 24.860201,44.451241 
	C25.491253,42.196396 27.214607,42.097500 28.863476,41.958370 
	C39.442806,41.065689 49.843166,39.033096 60.224461,36.932167 
	C62.459114,36.479927 64.097435,36.927933 65.940575,38.688625 
	C67.196129,40.375858 68.104095,41.845207 69.056259,43.643105 
	C68.033493,46.140621 66.084038,47.187737 63.873615,47.260777 
	C52.411903,47.639511 41.229809,50.344536 29.405638,51.134315 
z"/>
<path fill="#7D7D7D" opacity="1.000000" stroke="none" 
	d="
M260.710876,48.766418 
	C262.072693,49.892593 263.001526,51.032269 264.036530,52.472084 
	C264.347839,55.761486 262.008667,56.333057 259.969666,56.748993 
	C252.013763,58.371925 243.983643,59.638340 235.904556,60.397186 
	C232.743851,60.694061 229.536102,60.946533 226.673599,62.081131 
	C223.983643,63.147331 221.880371,62.823177 219.251053,61.256100 
	C217.666214,59.894691 216.469208,58.728867 215.179916,57.262329 
	C216.032318,54.555252 218.271881,54.067539 220.367035,53.799133 
	C232.536560,52.240112 244.635880,50.193348 256.804321,48.633892 
	C257.974731,48.483894 259.126556,48.576271 260.710876,48.766418 
z"/>
<path fill="#B8B8B8" opacity="1.000000" stroke="none" 
	d="
M235.278992,80.313004 
	C243.080368,80.204132 250.798645,78.320541 258.622040,77.512543 
	C261.254211,77.240700 263.845428,77.060440 266.962860,77.172897 
	C266.178253,81.510536 263.491974,84.645134 259.407501,86.997971 
	C253.075241,89.303444 247.012115,91.210373 240.483444,90.813637 
	C239.198318,90.735535 237.824966,90.961281 236.891541,89.329048 
	C237.156403,86.027992 237.547348,83.114563 235.278992,80.313004 
z"/>
<path fill="#646464" opacity="1.000000" stroke="none" 
	d="
M250.672256,37.809902 
	C252.112488,38.670269 253.147766,39.498032 254.390747,40.590099 
	C252.707489,43.963943 249.667130,45.229370 246.305954,45.761772 
	C234.511292,47.630032 222.651459,49.075073 210.485840,51.078476 
	C207.580582,48.565491 205.611679,45.777882 203.930435,42.395279 
	C204.111221,41.891132 204.338455,41.734035 204.973770,41.509918 
	C210.982269,42.689857 216.475662,41.438107 222.007614,40.792511 
	C230.172897,39.839596 238.167709,37.733109 246.408096,37.271362 
	C247.774948,37.194771 249.022980,37.279068 250.672256,37.809902 
z"/>
<path fill="#646464" opacity="1.000000" stroke="none" 
	d="
M107.553406,65.225616 
	C106.531815,62.891655 105.882172,60.799694 105.238022,58.345520 
	C107.758987,55.687000 110.955391,57.097935 113.802116,56.465878 
	C121.843658,54.680412 129.998322,53.442989 138.205948,52.637253 
	C140.342438,52.427513 142.495865,52.308769 144.851227,53.602158 
	C145.751007,55.635151 145.402649,57.426022 145.338791,59.626957 
	C143.256409,61.928928 140.613556,61.781143 138.247604,62.149532 
	C128.972733,63.593670 119.644455,64.674591 110.329262,65.838409 
	C109.492081,65.942993 108.686981,65.848480 107.553406,65.225616 
z"/>
<path fill="#5A5A5A" opacity="1.000000" stroke="none" 
	d="
M145.088226,54.243019 
	C134.020538,54.214191 123.321945,55.729134 112.829605,58.577156 
	C110.420074,59.231197 108.360382,57.435852 105.641731,57.986645 
	C104.931870,56.555889 104.620224,55.128475 104.360603,53.341331 
	C107.865425,50.044273 112.255409,50.529507 116.275536,49.954304 
	C124.823387,48.731270 133.374832,47.523968 141.922699,46.295288 
	C142.920135,46.151913 143.908188,46.094570 145.219727,46.717392 
	C145.621201,49.009117 145.679733,51.035194 145.669815,53.491135 
	C145.495087,54.121475 145.388824,54.321957 145.088226,54.243019 
z"/>
<path fill="#222222" opacity="1.000000" stroke="none" 
	d="
M106.422874,35.313091 
	C106.542946,33.464184 106.976555,31.934990 107.680420,30.195158 
	C109.437447,28.365324 111.133720,27.239254 113.440315,27.047504 
	C120.825127,26.433599 128.083847,24.978619 135.381470,23.753555 
	C138.558182,23.220278 141.946426,22.925165 145.407227,24.689598 
	C145.769852,25.749826 145.825119,26.510176 145.797485,27.644951 
	C145.666763,28.179192 145.618942,28.339008 145.632309,28.741457 
	C145.737030,29.150108 145.780548,29.316128 145.751190,29.729061 
	C144.758835,31.267056 143.444031,32.018761 141.935837,32.169949 
	C131.118820,33.254307 120.450874,35.502110 109.598045,36.287354 
	C108.599571,36.359596 107.629128,36.118835 106.422874,35.313091 
z"/>
<path fill="#4F4F4F" opacity="1.000000" stroke="none" 
	d="
M205.428986,42.080933 
	C204.808578,42.020344 204.623550,42.021881 204.161255,42.035828 
	C202.375671,40.559025 201.891052,38.527966 201.060974,36.341118 
	C211.073868,33.474205 221.383362,33.029537 231.528793,31.486610 
	C235.840820,30.830833 240.088974,28.215593 245.036499,30.749447 
	C246.271713,31.667868 247.091232,32.458538 248.013794,33.517822 
	C248.260605,36.863182 245.936478,37.033974 243.812485,37.445965 
	C233.060532,39.531540 222.034760,39.705406 211.326706,42.102043 
	C209.515579,42.507404 207.682953,41.746521 205.428986,42.080933 
z"/>
<path fill="#111111" opacity="1.000000" stroke="none" 
	d="
M114.763268,18.172611 
	C121.794327,19.000124 128.302429,16.719383 134.992783,16.610075 
	C138.206436,16.557570 141.492950,15.991796 145.278305,16.292393 
	C145.819946,17.715303 145.863663,19.026993 145.823883,20.663445 
	C144.545105,22.547850 142.844421,23.155571 140.998764,23.323265 
	C131.327515,24.201971 121.694305,25.346371 112.156334,27.211611 
	C111.487709,27.342365 110.861565,27.100107 110.093414,26.312622 
	C110.485107,22.862406 112.907082,20.855787 114.763268,18.172611 
z"/>
<path fill="#4F4F4F" opacity="1.000000" stroke="none" 
	d="
M37.452835,64.989822 
	C36.086479,63.495991 35.144855,62.068527 34.159737,60.315216 
	C34.644569,59.079048 35.451180,58.365849 36.460770,58.364429 
	C48.388908,58.347694 59.950726,55.491802 71.674026,53.897629 
	C72.490158,53.786652 73.319572,53.820171 74.524612,54.103752 
	C76.002708,54.819164 76.615562,54.239368 77.359764,53.110996 
	C78.882019,52.240845 80.101990,52.026047 81.135773,53.750587 
	C80.117134,56.118301 79.131065,57.995815 77.959457,60.128166 
	C64.552505,62.601212 51.384686,65.277031 37.452835,64.989822 
z"/>
<path fill="#6E6E6E" opacity="1.000000" stroke="none" 
	d="
M210.126953,51.240242 
	C217.839828,47.303818 226.373520,47.456875 234.581284,45.990185 
	C241.109924,44.823547 248.058472,45.227417 254.189911,40.911804 
	C255.984085,42.371544 257.369690,43.888691 258.856964,45.707237 
	C250.022827,50.401348 240.249573,51.205513 230.608917,52.385120 
	C226.828064,52.847729 223.059753,53.367725 219.325851,54.052864 
	C216.935318,54.491505 214.726807,54.455559 212.142120,53.272774 
	C211.225266,52.577221 210.701218,52.047935 210.126953,51.240242 
z"/>
<path fill="#979797" opacity="1.000000" stroke="none" 
	d="
M145.415802,76.656372 
	C145.812256,79.021866 145.858078,81.065132 145.846268,83.543129 
	C144.115356,86.518684 141.314285,86.347549 138.809708,86.844627 
	C135.454163,87.510597 132.019791,87.646049 128.256393,88.192017 
	C124.858437,87.119209 122.538857,85.108322 120.067612,82.803757 
	C119.049179,80.353203 119.219521,78.099670 121.841499,77.936775 
	C129.586807,77.455605 137.205383,75.039909 145.415802,76.656372 
z"/>
<path fill="#8D8D8D" opacity="1.000000" stroke="none" 
	d="
M268.245972,60.554123 
	C260.495789,63.916454 252.104248,63.548271 244.023575,65.006729 
	C237.953720,66.102257 231.704254,65.953461 225.396790,67.820137 
	C224.079773,66.938797 223.092773,65.910286 221.969879,64.603104 
	C221.457336,62.469543 222.840866,62.725704 223.938629,62.481846 
	C234.886734,60.049820 246.065277,59.163166 257.137024,57.573780 
	C260.137573,57.143040 263.243591,55.607101 266.691772,57.715286 
	C267.437836,58.731724 267.811066,59.483036 268.245972,60.554123 
z"/>
<path fill="#3E3E3E" opacity="1.000000" stroke="none" 
	d="
M237.674194,22.885014 
	C239.565567,24.352333 241.053909,25.865063 242.618652,27.682411 
	C239.825684,30.167019 236.359787,30.770926 232.982452,31.027719 
	C223.920593,31.716736 214.949722,32.966251 206.041977,34.695660 
	C204.361740,35.021873 202.804626,35.218483 200.838409,34.290710 
	C200.165451,32.685387 199.895065,31.217594 199.712952,29.381786 
	C204.418732,25.765633 209.970245,26.364710 215.097183,25.720154 
	C221.169525,24.956739 227.122665,23.641628 233.577850,22.743652 
	C235.091827,22.720333 236.165619,23.061794 237.674194,22.885014 
z"/>
<path fill="#464646" opacity="1.000000" stroke="none" 
	d="
M74.861984,53.845608 
	C68.713936,55.459408 62.547848,56.978943 56.295250,57.929317 
	C49.199070,59.007908 42.071529,60.097973 34.479927,59.941528 
	C33.396088,58.893505 32.675922,57.797646 31.908794,56.374962 
	C33.439507,54.166210 35.803375,54.298046 37.837585,54.070251 
	C46.885761,53.057026 55.832016,51.131004 64.942360,50.795605 
	C67.462036,50.702843 68.842720,49.316544 70.829941,47.768982 
	C72.407310,49.566368 73.606529,51.533188 74.861984,53.845608 
z"/>
<path fill="#222222" opacity="1.000000" stroke="none" 
	d="
M230.546082,10.721159 
	C231.254272,12.044483 231.640533,13.095760 232.061890,14.481649 
	C232.521194,16.450848 231.544525,17.554689 230.276550,17.884951 
	C220.906631,20.325480 211.567383,23.338169 201.400604,20.319973 
	C201.482559,17.654488 202.886917,15.853015 204.535095,13.864027 
	C213.200043,11.837752 221.430725,8.951700 230.546082,10.721159 
z"/>
<path fill="#CBCBCB" opacity="1.000000" stroke="none" 
	d="
M236.532318,88.988129 
	C242.704407,90.309952 248.254807,88.645142 253.858551,87.552391 
	C255.289307,87.273392 256.756958,87.183640 258.639282,87.034210 
	C256.855408,90.097725 253.316971,90.909630 250.096008,91.868561 
	C238.235565,95.399628 226.301102,96.402145 214.224075,91.335915 
	C212.974884,89.767990 213.445145,88.668617 214.688080,87.356422 
	C221.880814,89.300766 228.679855,92.840622 236.532318,88.988129 
z"/>
<path fill="#222222" opacity="1.000000" stroke="none" 
	d="
M66.200256,38.569550 
	C63.840405,38.186920 61.540440,38.390881 58.944389,38.841141 
	C47.819111,40.770721 36.737118,43.108013 25.092957,43.978714 
	C24.009418,42.937252 23.261269,41.754257 22.430515,40.277138 
	C25.413191,36.906681 29.487625,37.576817 33.196484,37.279083 
	C42.988323,36.493027 52.487221,33.438969 62.806438,33.588203 
	C64.186134,35.120461 65.149246,36.676525 66.200256,38.569550 
z"/>
<path fill="#111111" opacity="1.000000" stroke="none" 
	d="
M21.183771,37.301064 
	C20.222319,36.255291 19.641977,35.432014 19.041759,34.299850 
	C20.846466,30.613613 24.387114,31.008951 27.308849,30.582741 
	C37.593285,29.082497 47.901894,27.745417 58.568237,26.062778 
	C59.894291,27.492310 60.812790,28.922728 61.773678,30.674227 
	C61.364281,31.728746 60.740356,32.389698 59.931786,32.544662 
	C47.244232,34.976284 34.564690,37.493118 21.183771,37.301064 
z"/>
<path fill="#464646" opacity="1.000000" stroke="none" 
	d="
M145.296066,39.680191 
	C145.678589,41.055164 145.729416,42.121506 145.689194,43.580040 
	C143.711670,45.972965 141.096375,45.954338 138.692429,46.270630 
	C129.333694,47.501972 119.962845,48.637127 110.642082,50.145176 
	C108.670837,50.464115 106.683342,50.670601 104.503632,49.283165 
	C104.128914,47.809711 104.087868,46.630810 104.140411,45.109703 
	C111.994308,41.654350 120.367607,42.029545 128.412430,40.530884 
	C133.877609,39.512783 139.382141,38.827572 145.296066,39.680191 
z"/>
<path fill="#2E2E2E" opacity="1.000000" stroke="none" 
	d="
M200.900696,20.307697 
	C210.541046,20.964069 219.662109,19.019203 228.788864,17.060020 
	C229.966980,16.807127 231.043167,16.564327 231.915222,15.153008 
	C233.617569,16.835594 235.138168,18.854927 236.796783,21.205154 
	C233.811966,24.458561 229.734390,23.047215 226.141205,23.819721 
	C219.530838,25.240891 212.802017,26.087187 206.036163,26.500486 
	C204.203629,26.612427 202.379929,26.644043 200.368423,25.293659 
	C199.804794,23.473194 199.953415,21.999655 200.900696,20.307697 
z"/>
<path fill="#ADADAD" opacity="1.000000" stroke="none" 
	d="
M145.468994,88.659958 
	C148.732590,92.878593 152.806793,90.988701 156.217148,90.569824 
	C162.096985,89.847618 167.779358,87.973679 173.356323,84.959633 
	C175.213043,84.189209 176.177414,84.536407 176.241272,86.733040 
	C162.950577,95.784508 149.032730,96.643448 134.239655,91.290161 
	C136.137833,87.247971 138.852066,86.597603 145.468994,88.659958 
z"/>
<path fill="#5A5A5A" opacity="1.000000" stroke="none" 
	d="
M37.057266,65.235214 
	C39.234192,62.051258 42.373119,63.974342 44.933720,63.734489 
	C55.571152,62.738071 65.970512,59.573811 77.272392,60.277061 
	C77.252113,61.402184 76.730301,62.421368 75.989334,63.709335 
	C74.029152,65.326607 72.041832,66.134567 69.867401,66.278099 
	C61.313087,66.842751 52.880241,68.398827 44.370823,69.320709 
	C42.716801,69.499908 41.074848,69.506973 39.212837,68.316292 
	C38.251610,67.228424 37.669018,66.387695 37.057266,65.235214 
z"/>
<path fill="#4F4F4F" opacity="1.000000" stroke="none" 
	d="
M104.102829,49.387695 
	C113.567894,48.665382 122.731239,46.476841 132.045059,45.479870 
	C136.293228,45.025131 140.532013,44.482754 145.186615,43.976181 
	C145.649017,44.728752 145.699875,45.485268 145.656708,46.612411 
	C132.236938,49.805779 118.670143,51.008068 104.815582,52.983154 
	C104.286980,51.916656 104.161339,50.851715 104.102829,49.387695 
z"/>
<path fill="#646464" opacity="1.000000" stroke="none" 
	d="
M38.892071,68.397781 
	C50.868034,66.707451 62.901863,65.345757 75.352936,63.981091 
	C74.969101,65.491234 74.168015,67.004349 73.144142,68.754135 
	C63.045967,72.154770 52.809311,72.846458 42.168171,73.272423 
	C40.836502,71.653381 39.893219,70.189896 38.892071,68.397781 
z"/>
<path fill="#757575" opacity="1.000000" stroke="none" 
	d="
M211.883820,53.402000 
	C223.773239,52.090843 235.718735,50.455540 247.645981,48.651070 
	C251.259552,48.104374 254.115143,44.629589 258.574341,46.004921 
	C259.613464,46.737713 260.268280,47.466789 261.033478,48.474392 
	C255.379272,51.526974 248.998886,50.850319 242.941162,51.987862 
	C233.910507,53.683681 224.664688,54.132423 215.430817,56.807053 
	C214.064545,55.873577 213.041443,54.785534 211.883820,53.402000 
z"/>
<path fill="#191919" opacity="1.000000" stroke="none" 
	d="
M20.857367,37.409027 
	C34.205212,35.057644 47.607761,33.036716 61.413193,31.005547 
	C62.251888,31.653973 62.687710,32.312641 63.173275,33.267853 
	C62.944664,34.486633 62.839737,35.754341 61.509026,35.548603 
	C52.856205,34.210823 44.787331,38.186726 36.257118,38.242943 
	C31.886013,38.271751 27.521908,39.363174 22.751276,39.978683 
	C21.869301,39.235165 21.390688,38.487324 20.857367,37.409027 
z"/>
<path fill="#6E6E6E" opacity="1.000000" stroke="none" 
	d="
M41.845112,73.438683 
	C48.330090,70.560646 55.376759,71.275703 62.147110,70.109840 
	C65.441505,69.542534 68.640282,67.408165 72.560516,68.947914 
	C72.140404,70.539940 71.359459,72.089066 70.315140,73.829117 
	C61.883846,77.158089 53.452740,78.348557 44.385681,77.214142 
	C43.325661,75.911743 42.618050,74.836128 41.845112,73.438683 
z"/>
<path fill="#464646" opacity="1.000000" stroke="none" 
	d="
M200.466461,34.481701 
	C210.039536,32.464508 219.595215,30.124062 229.349136,29.908455 
	C233.726364,29.811699 237.633652,27.960358 242.299622,27.986397 
	C243.508514,28.748976 244.321945,29.510929 245.293793,30.575037 
	C237.028168,30.963413 229.045288,34.206100 220.698212,34.505455 
	C214.364716,34.732594 208.260483,37.370060 201.452332,36.046944 
	C200.882645,35.599957 200.689865,35.205093 200.466461,34.481701 
z"/>
<path fill="#363636" opacity="1.000000" stroke="none" 
	d="
M29.007116,51.374069 
	C35.807842,47.793991 43.397022,48.555496 50.533909,46.961926 
	C56.413681,45.649052 62.769436,47.349556 68.708748,44.025234 
	C69.445068,44.423634 69.789673,44.875614 70.184975,45.619164 
	C69.535439,48.464088 67.693840,49.947876 65.238922,50.175850 
	C54.019875,51.217709 42.988808,53.735565 31.290215,54.335197 
	C30.250158,53.430260 29.642990,52.563168 29.007116,51.374069 
z"/>
<path fill="#3E3E3E" opacity="1.000000" stroke="none" 
	d="
M30.877888,54.566139 
	C36.167408,51.181137 42.239784,51.839203 47.971470,51.134983 
	C53.807602,50.417927 59.423985,48.044941 65.488815,48.849659 
	C67.223961,49.079895 68.140862,47.055923 69.889656,46.071877 
	C70.538643,46.301708 70.841614,46.692688 71.176338,47.341606 
	C70.447952,51.538475 68.561424,52.512791 64.218300,52.318447 
	C58.208286,52.049515 52.117508,53.698284 46.054199,54.469967 
	C41.627350,55.033375 37.189034,55.506657 32.308830,56.034126 
	C31.540705,55.643738 31.219578,55.239330 30.877888,54.566139 
z"/>
<path fill="#2E2E2E" opacity="1.000000" stroke="none" 
	d="
M105.929710,35.295502 
	C119.145248,34.203976 131.963394,31.722847 145.278915,29.989359 
	C145.730453,31.048357 145.782593,32.120739 145.745041,33.587955 
	C141.175262,36.451904 136.125641,36.104706 131.303497,36.859570 
	C122.861725,38.181049 114.392632,39.278580 105.478439,39.256176 
	C105.330566,37.862305 105.540329,36.729969 105.929710,35.295502 
z"/>
<path fill="#7D7D7D" opacity="1.000000" stroke="none" 
	d="
M114.924271,76.924690 
	C112.830620,75.607239 111.798264,73.647888 110.553703,71.404968 
	C117.136070,67.360039 124.769005,68.010490 131.961929,66.664780 
	C136.183716,65.874931 140.624969,64.220299 145.340729,66.659882 
	C145.723999,68.048859 145.783966,69.114471 145.772827,70.576080 
	C143.844742,72.932365 141.399628,72.191864 139.157532,72.409630 
	C133.133728,72.994705 126.979164,72.893013 121.064194,75.966713 
	C120.309990,76.432045 119.845970,76.600319 119.005684,76.683144 
	C117.499741,76.416786 116.315491,75.655296 114.924271,76.924690 
z"/>
<path fill="#070707" opacity="1.000000" stroke="none" 
	d="
M58.952805,25.748640 
	C56.753815,28.893436 53.442669,28.602642 50.403824,28.980013 
	C40.129154,30.255943 29.790617,31.100147 19.368965,33.835155 
	C18.440294,33.192177 17.858702,32.393383 17.245239,31.294003 
	C28.816401,29.007296 40.410568,26.966120 52.032158,25.095299 
	C53.746265,24.819370 55.187496,24.335413 56.829918,23.097248 
	C57.760593,23.765102 58.345207,24.600245 58.952805,25.748640 
z"/>
<path fill="#868686" opacity="1.000000" stroke="none" 
	d="
M267.024872,57.641083 
	C252.081924,59.197346 237.267303,61.739544 222.103195,63.986553 
	C220.919144,63.436218 220.004288,62.547997 218.976318,61.360149 
	C227.836823,61.204922 236.455750,58.557934 245.307007,57.674274 
	C250.516495,57.154171 255.651657,55.907047 260.830383,55.048058 
	C262.032288,54.848701 263.070892,54.515476 263.954041,53.115540 
	C265.649994,53.930756 266.273865,55.643677 267.024872,57.641083 
z"/>
<path fill="#757575" opacity="1.000000" stroke="none" 
	d="
M145.742371,66.526108 
	C135.513641,66.503273 125.801483,69.675308 115.815529,70.567581 
	C114.340660,70.699371 112.869385,70.871414 110.911560,71.041092 
	C109.934616,70.250183 109.442566,69.443001 108.870674,68.356766 
	C109.671059,66.434944 111.262039,65.770332 112.905113,65.762001 
	C119.359428,65.729225 125.513550,63.454151 131.975632,63.418060 
	C136.257690,63.394142 140.422333,62.419567 144.614410,60.244431 
	C144.916977,58.230774 144.933640,56.524876 144.922089,54.391289 
	C144.893890,53.963596 145.245468,53.906002 145.423416,53.913498 
	C145.674469,57.970318 145.747574,62.019642 145.742371,66.526108 
z"/>
<path fill="#363636" opacity="1.000000" stroke="none" 
	d="
M104.980118,39.361771 
	C118.286171,36.836430 131.513199,35.166553 145.228577,33.983624 
	C145.711029,34.735661 145.766724,35.488533 145.729279,36.610283 
	C143.594498,39.054192 140.739410,38.995289 138.249283,39.307434 
	C128.758194,40.497158 119.242592,41.501156 109.760780,42.783688 
	C108.288025,42.982895 106.799049,43.230103 104.992729,42.265884 
	C104.679001,41.278309 104.759216,40.503601 104.980118,39.361771 
z"/>
<path fill="#070707" opacity="1.000000" stroke="none" 
	d="
M92.798500,25.238899 
	C95.780434,18.405912 98.963608,11.906071 102.253845,5.460886 
	C103.153046,3.699465 104.319275,1.640022 106.790321,2.954546 
	C109.300667,4.289968 108.107544,6.339927 107.138832,8.051390 
	C103.762619,14.016314 100.305717,19.935568 96.553329,25.994625 
	C95.047371,26.655880 94.012177,26.315945 92.798500,25.238899 
z"/>
<path fill="#3E3E3E" opacity="1.000000" stroke="none" 
	d="
M104.438049,42.365059 
	C118.003105,40.362881 131.407425,38.672745 145.223969,36.980881 
	C145.691711,37.734772 145.747238,38.490387 145.715271,39.617416 
	C134.109848,41.483887 122.581863,42.908142 111.083633,44.541801 
	C109.104027,44.823063 107.179680,44.985332 104.720795,44.827785 
	C104.248436,44.070702 104.262871,43.373905 104.438049,42.365059 
z"/>
<path fill="#6E6E6E" opacity="1.000000" stroke="none" 
	d="
M144.473541,59.958115 
	C145.352310,62.486862 143.660538,62.760555 141.743515,63.278202 
	C133.286957,65.561684 124.482742,65.283020 115.937111,66.920235 
	C113.868271,67.316589 111.666504,67.105759 109.215652,68.009979 
	C108.253593,67.250580 107.716354,66.423454 107.180283,65.289970 
	C119.469887,63.315594 131.758316,61.647575 144.473541,59.958115 
z"/>
<path fill="#191919" opacity="1.000000" stroke="none" 
	d="
M109.578003,26.128696 
	C113.954926,25.299551 118.064545,24.741823 122.133827,23.971050 
	C129.682892,22.541162 137.481659,23.079401 145.341919,21.001060 
	C145.789780,22.059093 145.839203,23.129978 145.801605,24.595169 
	C134.009460,24.027388 122.886848,28.552963 111.289169,28.682684 
	C110.398590,28.692648 109.516838,29.492186 108.290825,29.954620 
	C107.604050,28.468241 108.959244,27.572401 109.578003,26.128696 
z"/>
<path fill="#8D8D8D" opacity="1.000000" stroke="none" 
	d="
M117.602722,76.032272 
	C118.442963,75.999313 118.886314,75.996857 119.662170,75.994606 
	C128.072784,72.885300 136.430298,71.739288 145.395920,72.706863 
	C145.793472,74.051033 145.844208,75.117851 145.830688,76.581635 
	C137.902847,77.216324 130.220993,79.477966 122.294731,79.068390 
	C120.617714,78.981728 120.042053,80.128944 119.932541,82.077454 
	C118.601654,81.382156 117.303551,80.229721 115.909126,78.774086 
	C115.350662,77.132240 116.159851,76.529022 117.602722,76.032272 
z"/>
<path fill="#363636" opacity="1.000000" stroke="none" 
	d="
M199.834015,25.383144 
	C212.127151,25.733477 223.831711,21.682489 236.421860,21.643690 
	C236.934784,21.536051 236.911835,21.567802 236.928619,21.563492 
	C236.922745,22.467926 236.414658,23.068136 235.351379,23.761208 
	C223.674149,26.370262 212.163742,27.562679 200.245636,29.010063 
	C199.760208,27.931112 199.719177,26.848452 199.834015,25.383144 
z"/>
<path fill="#7D7D7D" opacity="1.000000" stroke="none" 
	d="
M50.106022,86.488235 
	C48.457092,84.627541 47.219311,82.682472 45.910316,80.396080 
	C47.411327,78.134659 49.728870,78.580452 51.760979,78.302643 
	C57.071758,77.576622 62.348064,76.483528 68.083908,76.845245 
	C67.462173,78.959312 66.503113,80.771103 65.285538,82.796997 
	C60.510372,85.510475 55.016537,83.830658 50.106022,86.488235 
z"/>
<path fill="#757575" opacity="1.000000" stroke="none" 
	d="
M68.638718,76.942986 
	C61.300587,78.854332 54.090721,79.888763 46.300179,80.038376 
	C45.264988,79.234879 44.690876,78.414993 44.075020,77.291245 
	C52.416157,75.993896 60.799046,75.000420 69.616852,74.013504 
	C69.653244,74.926186 69.254723,75.832321 68.638718,76.942986 
z"/>
<path fill="#191919" opacity="1.000000" stroke="none" 
	d="
M230.932343,10.634737 
	C222.194656,11.026645 213.810593,13.310164 205.048676,13.996972 
	C205.710968,11.592937 207.694641,10.548298 209.584625,9.036585 
	C212.220169,11.838310 215.436630,10.522206 217.480698,9.477224 
	C221.785110,7.276691 226.060364,7.950751 230.858856,8.086823 
	C231.194870,8.836618 231.095764,9.556444 230.932343,10.634737 
z"/>
<path fill="#A1A1A1" opacity="1.000000" stroke="none" 
	d="
M176.387955,87.085068 
	C175.938583,86.141945 175.614395,85.269203 174.073227,84.977295 
	C177.508438,80.931755 182.312454,77.933510 185.596130,72.976120 
	C186.925842,73.110123 187.808960,73.656815 188.709747,74.730347 
	C186.218231,80.371635 181.729660,83.944611 176.387955,87.085068 
z"/>
<path fill="#A1A1A1" opacity="1.000000" stroke="none" 
	d="
M145.871140,88.555290 
	C142.030731,89.422462 137.993942,87.915878 134.230072,90.717438 
	C131.863770,90.766884 130.127945,89.583054 128.076157,88.365059 
	C131.610077,84.760757 136.580902,86.509094 140.791336,85.030457 
	C142.143234,84.555687 143.610840,84.410347 145.407074,84.046082 
	C145.834030,85.365723 145.879440,86.753586 145.871140,88.555290 
z"/>
<path fill="#868686" opacity="1.000000" stroke="none" 
	d="
M145.805725,72.649597 
	C137.291214,72.725609 129.202881,75.466934 120.420837,75.996445 
	C120.318161,73.689735 122.171585,73.395729 123.941040,72.999046 
	C130.815155,71.458015 137.764496,70.692230 145.258728,70.978233 
	C145.757385,71.419708 145.813065,71.867340 145.805725,72.649597 
z"/>
<path fill="#ADADAD" opacity="1.000000" stroke="none" 
	d="
M208.187561,87.454056 
	C204.348557,86.639153 202.300110,83.975037 200.033981,81.618752 
	C199.048126,80.593689 198.538132,79.335510 199.562943,78.085564 
	C200.892288,76.464172 202.308060,77.400383 203.419495,78.362091 
	C206.005447,80.599709 208.467621,82.980362 211.193008,85.583427 
	C210.784653,86.944283 209.765106,87.313332 208.187561,87.454056 
z"/>
<path fill="#191919" opacity="1.000000" stroke="none" 
	d="
M177.927063,14.415611 
	C178.823196,13.631916 179.687195,12.989187 179.924637,11.420470 
	C183.791443,13.192442 186.174240,16.765841 188.885925,19.976044 
	C189.694794,20.933630 190.405594,22.385286 189.002197,23.520071 
	C187.612869,24.643505 186.469025,23.649532 185.547714,22.697832 
	C183.014313,20.080908 180.562515,17.384991 177.927063,14.415611 
z"/>
<path fill="#8D8D8D" opacity="1.000000" stroke="none" 
	d="
M52.472725,91.064804 
	C51.420868,89.841576 50.719059,88.753510 49.965721,87.337959 
	C54.073318,84.563339 58.619152,84.157974 63.650475,84.737381 
	C62.926899,87.006927 61.854633,89.013924 60.536015,91.262474 
	C57.799091,91.442154 55.295704,91.694954 52.472725,91.064804 
z"/>
<path fill="#464646" opacity="1.000000" stroke="none" 
	d="
M81.374153,54.017284 
	C80.506653,53.181477 79.484093,53.011532 78.013016,52.917171 
	C79.219566,49.714554 80.822487,46.545219 82.692932,43.153709 
	C84.161568,42.715485 85.322746,42.732620 86.616959,43.749428 
	C85.135452,47.255459 83.390274,50.524620 81.374153,54.017284 
z"/>
<path fill="#8D8D8D" opacity="1.000000" stroke="none" 
	d="
M189.080261,74.678162 
	C187.708801,74.962463 186.454346,75.057480 185.964294,73.156448 
	C187.282013,70.594688 188.614838,68.344086 190.099533,66.198586 
	C190.657852,65.391792 191.626205,64.853455 192.672775,65.452583 
	C193.881790,66.144699 194.115738,67.274658 193.399826,68.391052 
	C192.089722,70.434006 190.642532,72.389061 189.080261,74.678162 
z"/>
<path fill="#868686" opacity="1.000000" stroke="none" 
	d="
M64.198700,84.792267 
	C59.593361,85.668037 55.187557,86.336143 50.347977,87.007355 
	C49.914200,87.010468 49.724804,86.829674 49.709839,86.701141 
	C51.722103,82.909157 55.460594,83.494049 58.721035,83.042572 
	C60.486576,82.798111 62.313923,82.999992 64.570198,83.005814 
	C64.817413,83.535599 64.607819,84.060097 64.198700,84.792267 
z"/>
<path fill="#979797" opacity="1.000000" stroke="none" 
	d="
M52.178528,91.243317 
	C54.663876,89.778786 57.217838,89.410164 60.045124,91.154160 
	C59.763386,92.566986 59.237103,93.629944 58.494240,94.901375 
	C57.371502,95.093132 56.465347,95.076424 55.105370,95.105911 
	C53.372776,94.271790 52.877716,92.864548 52.178528,91.243317 
z"/>
<path fill="#2E2E2E" opacity="1.000000" stroke="none" 
	d="
M84.384453,40.309746 
	C85.150757,38.078495 86.153473,36.162369 87.440872,34.077923 
	C88.791031,33.313332 89.905319,33.104649 91.585800,33.802246 
	C90.695625,36.591194 89.313499,39.063271 87.652802,41.817871 
	C86.417847,41.680561 85.402283,41.371181 84.384453,40.309746 
z"/>
<path fill="#B8B8B8" opacity="1.000000" stroke="none" 
	d="
M207.910858,87.758698 
	C208.325348,86.289856 209.369415,85.996117 210.978790,85.909225 
	C212.378082,86.230873 213.350098,86.597939 214.640350,87.023056 
	C214.661209,88.175354 214.363831,89.269608 214.029114,90.708176 
	C211.776886,90.511757 209.678116,89.741997 207.910858,87.758698 
z"/>
<path fill="#222222" opacity="1.000000" stroke="none" 
	d="
M92.215805,33.871056 
	C90.989059,34.072979 89.900375,34.026836 88.268616,33.945148 
	C88.579315,31.993166 89.433075,30.076727 90.605881,28.005077 
	C92.163971,27.903622 93.057739,28.586571 94.008072,29.759296 
	C93.562187,31.250137 92.958031,32.436565 92.215805,33.871056 
z"/>
<path fill="#191919" opacity="1.000000" stroke="none" 
	d="
M94.482666,29.936800 
	C92.936378,30.000372 91.906509,29.567520 91.079277,28.162676 
	C90.739998,26.727362 91.465065,26.013626 92.323700,25.070147 
	C93.542198,25.190115 94.527458,25.495058 95.869942,25.958534 
	C96.331825,27.572596 95.829002,28.793188 94.482666,29.936800 
z"/>
<path fill="#363636" opacity="1.000000" stroke="none" 
	d="
M84.002884,40.292198 
	C85.292793,40.054176 86.432396,40.125221 87.224503,41.703186 
	C87.313515,42.597679 87.252815,43.094963 87.036362,43.789268 
	C85.709145,43.923004 84.478317,44.263302 83.186844,43.203987 
	C82.882202,42.006371 83.033913,41.169315 84.002884,40.292198 
z"/>
<path fill="#868686" opacity="1.000000" stroke="none" 
	d="
M117.929131,75.638741 
	C117.367165,76.619133 116.734718,77.236504 115.957535,78.162376 
	C115.459335,78.130974 115.105873,77.791069 114.687393,77.223419 
	C115.240532,75.555672 114.992432,72.485756 117.929131,75.638741 
z"/>
<path fill="#2E2E2E" opacity="1.000000" stroke="none" 
	d="
M145.780487,28.744698 
	C145.341949,28.794394 145.257599,28.532164 145.577530,28.108389 
	C145.765564,28.181353 145.816513,28.343328 145.780487,28.744698 
z"/>
<path fill="#5A5A5A" opacity="1.000000" stroke="none" 
	d="
M205.248062,42.288395 
	C213.103119,39.954830 221.310379,38.597988 229.670532,37.931541 
	C235.782944,37.444267 241.981354,37.022087 247.927505,34.140224 
	C249.803726,34.324062 249.891159,36.119759 250.956024,37.542236 
	C237.646774,39.842182 224.225937,41.912273 210.773605,43.751923 
	C209.102264,43.980484 207.263641,42.985832 205.248062,42.288395 
z"/>
<path fill="#222222" opacity="1.000000" stroke="none" 
	d="
M252.125763,8.478168 
	C252.955276,7.458449 253.976242,6.714008 255.365845,5.844213 
	C258.114990,7.309560 260.529846,8.830439 262.530609,10.946868 
	C263.383698,11.849278 264.264038,12.530332 263.363007,13.797769 
	C262.325928,15.256594 261.158264,14.766562 259.968994,13.949392 
	C257.428009,12.203421 254.868896,10.483834 252.125763,8.478168 
z"/>
<path fill="#2E2E2E" opacity="1.000000" stroke="none" 
	d="
M235.362076,23.987574 
	C235.458405,23.353075 235.905716,22.715500 236.649200,21.818554 
	C237.287277,21.840124 237.629181,22.121065 238.024139,22.620808 
	C237.559570,23.779600 236.685822,23.984247 235.362076,23.987574 
z"/>
</svg>